<mxfile host="app.diagrams.net" modified="2023-01-09T06:18:48.463Z" agent="5.0 (Macintosh; Intel Mac OS X 10_15_7) AppleWebKit/537.36 (KHTML, like Gecko) Chrome/108.0.0.0 Safari/537.36" version="20.7.4" etag="uZkxH42gjIxYDqxDSIDP" type="github">
  <diagram id="OfbbpKo02JQphFTSLnsL" name="第 1 页">
    <mxGraphModel dx="1187" dy="760" grid="1" gridSize="10" guides="1" tooltips="1" connect="1" arrows="1" fold="1" page="1" pageScale="1" pageWidth="827" pageHeight="1169" math="0" shadow="0">
      <root>
        <mxCell id="0" />
        <mxCell id="1" parent="0" />
        <mxCell id="q5BtTwWZ9gBS2KeyRRET-5" style="edgeStyle=orthogonalEdgeStyle;rounded=0;orthogonalLoop=1;jettySize=auto;html=1;entryX=0.5;entryY=0;entryDx=0;entryDy=0;curved=1;" edge="1" parent="1" source="q5BtTwWZ9gBS2KeyRRET-1" target="q5BtTwWZ9gBS2KeyRRET-2">
          <mxGeometry relative="1" as="geometry" />
        </mxCell>
        <mxCell id="q5BtTwWZ9gBS2KeyRRET-6" style="edgeStyle=orthogonalEdgeStyle;rounded=0;orthogonalLoop=1;jettySize=auto;html=1;entryX=0.5;entryY=0;entryDx=0;entryDy=0;curved=1;" edge="1" parent="1" source="q5BtTwWZ9gBS2KeyRRET-1" target="q5BtTwWZ9gBS2KeyRRET-3">
          <mxGeometry relative="1" as="geometry" />
        </mxCell>
        <mxCell id="q5BtTwWZ9gBS2KeyRRET-7" style="edgeStyle=orthogonalEdgeStyle;rounded=0;orthogonalLoop=1;jettySize=auto;html=1;entryX=0.5;entryY=0;entryDx=0;entryDy=0;exitX=0.5;exitY=1;exitDx=0;exitDy=0;curved=1;" edge="1" parent="1" source="q5BtTwWZ9gBS2KeyRRET-1" target="q5BtTwWZ9gBS2KeyRRET-4">
          <mxGeometry relative="1" as="geometry" />
        </mxCell>
        <mxCell id="q5BtTwWZ9gBS2KeyRRET-1" value="业务系统（支付核心）" style="rounded=0;whiteSpace=wrap;html=1;" vertex="1" parent="1">
          <mxGeometry x="330" y="80" width="140" height="60" as="geometry" />
        </mxCell>
        <mxCell id="q5BtTwWZ9gBS2KeyRRET-2" value="pay-route&lt;br&gt;法币" style="rounded=0;whiteSpace=wrap;html=1;" vertex="1" parent="1">
          <mxGeometry x="220" y="230" width="120" height="60" as="geometry" />
        </mxCell>
        <mxCell id="q5BtTwWZ9gBS2KeyRRET-3" value="积分（points）" style="rounded=0;whiteSpace=wrap;html=1;" vertex="1" parent="1">
          <mxGeometry x="450" y="230" width="120" height="60" as="geometry" />
        </mxCell>
        <mxCell id="q5BtTwWZ9gBS2KeyRRET-4" value="券（coupon）" style="rounded=0;whiteSpace=wrap;html=1;" vertex="1" parent="1">
          <mxGeometry x="650" y="230" width="100" height="60" as="geometry" />
        </mxCell>
      </root>
    </mxGraphModel>
  </diagram>
</mxfile>
